<svg width="149" height="11" viewBox="0 0 149 11" fill="none" xmlns="http://www.w3.org/2000/svg">
<g clip-path="url(#clip0_609_12097)">
<path d="M8.41282 3.76261C8.29914 3.66103 8.13866 3.67253 8.03645 3.76261V3.7607L0 10.9225H0.719297L7.75561 4.64909L7.55405 5.43781L1.4023 10.9225H2.12159L7.34295 6.26775L7.14425 7.04689L2.79695 10.9225H3.51625L6.93315 7.87682L6.74401 8.61763L4.15817 10.9234H4.87747L6.5329 9.44756L6.33803 10.2133L5.54136 10.9234H16.455L8.41282 3.76261Z" fill="#053038"/>
<path d="M30.3946 10.9233L18.5444 0.0724148C18.4311 -0.0320312 18.2694 -0.0176579 18.1701 0.0781641H18.1691L11.7954 5.91948L12.1456 6.23952L17.9063 0.958769L17.7029 1.77709L12.4902 6.55573L12.8404 6.87578L17.4976 2.60691L17.2942 3.42523L13.185 7.19199L13.5351 7.51204L17.0889 4.25409L16.8855 5.07241L13.8797 7.82729L14.2299 8.14734L16.6802 5.90127L16.4768 6.71959L14.5754 8.46259L14.9256 8.78264L16.2715 7.54845L16.0681 8.36677L15.2702 9.09789L15.6204 9.41794L15.8628 9.19563L15.7727 9.55784L17.2598 10.9195H30.3955L30.3946 10.9233Z" fill="#053038"/>
</g>
<path d="M110.661 3.20102H108.448V4.39784H110.537V5.97459H108.448V7.2094H110.661V8.78615H106.586V1.62427H110.661V3.20102Z" fill="#053038"/>
<path d="M97.9316 8.78615V1.62427H99.7934L103.232 6.00309V1.62427H105.084V8.78615H103.232L99.7934 4.40733V8.78615H97.9316Z" fill="#053038"/>
<path d="M94.2106 6.12657L93.3747 3.74244L92.5389 6.12657H94.2106ZM94.7045 7.54185H92.045L91.6175 8.78615H89.6323L92.3584 1.62427H94.3911L97.1172 8.78615H95.132L94.7045 7.54185Z" fill="#053038"/>
<path d="M88.2923 3.20102V8.78615H86.4306V3.20102H84.9014V1.62427H89.8216V3.20102H88.2923Z" fill="#053038"/>
<path d="M76.9219 8.78615V1.62427H78.7836L82.222 6.00309V1.62427H84.0743V8.78615H82.222L78.7836 4.40733V8.78615H76.9219Z" fill="#053038"/>
<path d="M69.7612 5.20522C69.7612 5.49017 69.815 5.75297 69.9226 5.99359C70.0303 6.23422 70.1759 6.44319 70.3596 6.6205C70.5432 6.7978 70.7553 6.93711 70.996 7.03843C71.2429 7.13342 71.5026 7.18091 71.7748 7.18091C72.0471 7.18091 72.3036 7.13342 72.5442 7.03843C72.7912 6.93711 73.0065 6.7978 73.1901 6.6205C73.3801 6.44319 73.5289 6.23422 73.6366 5.99359C73.7442 5.75297 73.798 5.49017 73.798 5.20522C73.798 4.92026 73.7442 4.65747 73.6366 4.41684C73.5289 4.17621 73.3801 3.96724 73.1901 3.78994C73.0065 3.61263 72.7912 3.47649 72.5442 3.3815C72.3036 3.28018 72.0471 3.22952 71.7748 3.22952C71.5026 3.22952 71.2429 3.28018 70.996 3.3815C70.7553 3.47649 70.5432 3.61263 70.3596 3.78994C70.1759 3.96724 70.0303 4.17621 69.9226 4.41684C69.815 4.65747 69.7612 4.92026 69.7612 5.20522ZM67.814 5.20522C67.814 4.6733 67.9121 4.17938 68.1084 3.72345C68.3047 3.26119 68.577 2.85908 68.9253 2.51713C69.2736 2.17519 69.6883 1.90923 70.1696 1.71926C70.6572 1.52296 71.1923 1.4248 71.7748 1.4248C72.3511 1.4248 72.883 1.52296 73.3706 1.71926C73.8582 1.90923 74.2761 2.17519 74.6244 2.51713C74.979 2.85908 75.2545 3.26119 75.4508 3.72345C75.6471 4.17938 75.7452 4.6733 75.7452 5.20522C75.7452 5.73713 75.6471 6.23422 75.4508 6.69649C75.2545 7.15242 74.979 7.55135 74.6244 7.8933C74.2761 8.23525 73.8582 8.50437 73.3706 8.70067C72.883 8.89064 72.3511 8.98563 71.7748 8.98563C71.1923 8.98563 70.6572 8.89064 70.1696 8.70067C69.6883 8.50437 69.2736 8.23525 68.9253 7.8933C68.577 7.55135 68.3047 7.15242 68.1084 6.69649C67.9121 6.23422 67.814 5.73713 67.814 5.20522Z" fill="#053038"/>
<path d="M57.9819 8.78615L59.1977 1.62427H61.0405L62.4747 5.44267L63.8995 1.62427H65.7422L66.958 8.78615H65.1058L64.4884 4.66379L62.7977 8.78615H62.0568L60.4515 4.66379L59.8341 8.78615H57.9819Z" fill="#053038"/>
<path d="M53.5897 7.34238H53.9982C54.4668 7.34238 54.8024 7.28222 55.005 7.16191C55.2077 7.04159 55.309 6.84846 55.309 6.5825C55.309 6.31654 55.2077 6.1234 55.005 6.00309C54.8024 5.88277 54.4668 5.82261 53.9982 5.82261H53.5897V7.34238ZM53.5897 4.43583H53.9317C54.5143 4.43583 54.8055 4.2047 54.8055 3.74244C54.8055 3.28018 54.5143 3.04905 53.9317 3.04905H53.5897V4.43583ZM51.728 1.62427H54.5016C55.1602 1.62427 55.6604 1.78258 56.0024 2.09919C56.3443 2.41581 56.5153 2.87174 56.5153 3.46698C56.5153 3.82792 56.4488 4.12871 56.3158 4.36934C56.1892 4.60364 55.9929 4.80311 55.7269 4.96775C55.9929 5.01841 56.2177 5.09756 56.4013 5.20521C56.5913 5.30653 56.7432 5.43317 56.8572 5.58515C56.9775 5.73713 57.063 5.9081 57.1137 6.09807C57.1644 6.28804 57.1897 6.49068 57.1897 6.70598C57.1897 7.04159 57.1295 7.33921 57.0092 7.59884C56.8952 7.85846 56.7306 8.07693 56.5153 8.25424C56.3063 8.43154 56.0499 8.56452 55.7459 8.65317C55.442 8.74183 55.1 8.78615 54.7201 8.78615H51.728V1.62427Z" fill="#053038"/>
<path d="M45.8446 1.62427V5.51866C45.8446 5.72763 45.851 5.94293 45.8636 6.16456C45.8826 6.37986 45.9301 6.57616 46.0061 6.75347C46.0884 6.93078 46.2151 7.07642 46.386 7.1904C46.557 7.29805 46.7976 7.35188 47.1079 7.35188C47.4182 7.35188 47.6557 7.29805 47.8203 7.1904C47.9913 7.07642 48.1179 6.93078 48.2003 6.75347C48.2826 6.57616 48.3301 6.37986 48.3427 6.16456C48.3617 5.94293 48.3712 5.72763 48.3712 5.51866V1.62427H50.2234V5.77512C50.2234 6.88961 49.967 7.70332 49.4541 8.21624C48.9475 8.72916 48.1654 8.98562 47.1079 8.98562C46.0504 8.98562 45.2652 8.72916 44.7523 8.21624C44.2394 7.70332 43.9829 6.88961 43.9829 5.77512V1.62427H45.8446Z" fill="#053038"/>
<path d="M41.7749 3.45749C41.5722 3.29285 41.3696 3.17253 41.167 3.09655C40.9643 3.01422 40.768 2.97306 40.5781 2.97306C40.3374 2.97306 40.1411 3.03006 39.9891 3.14404C39.8372 3.25802 39.7612 3.40683 39.7612 3.59047C39.7612 3.71712 39.7992 3.8216 39.8752 3.90392C39.9512 3.98624 40.0493 4.05906 40.1696 4.12239C40.2963 4.17938 40.4356 4.23004 40.5876 4.27436C40.7459 4.31869 40.901 4.36618 41.053 4.41684C41.6609 4.61948 42.1042 4.89177 42.3828 5.23371C42.6677 5.56933 42.8102 6.00943 42.8102 6.55401C42.8102 6.92128 42.7469 7.25373 42.6202 7.55135C42.4999 7.84897 42.3195 8.10543 42.0788 8.32073C41.8445 8.5297 41.5532 8.69118 41.205 8.80516C40.863 8.92547 40.4736 8.98563 40.0366 8.98563C39.1311 8.98563 38.2921 8.7165 37.5195 8.17826L38.3174 6.67749C38.596 6.92445 38.8715 7.10809 39.1438 7.2284C39.4161 7.34872 39.6852 7.40888 39.9512 7.40888C40.2551 7.40888 40.4799 7.33922 40.6255 7.19991C40.7775 7.0606 40.8535 6.90229 40.8535 6.72498C40.8535 6.61733 40.8345 6.52551 40.7965 6.44952C40.7585 6.3672 40.6952 6.29438 40.6066 6.23106C40.5179 6.1614 40.4008 6.09808 40.2551 6.04109C40.1158 5.9841 39.9448 5.92077 39.7422 5.85112C39.5016 5.77513 39.2641 5.69281 39.0298 5.60416C38.8018 5.50917 38.596 5.38569 38.4124 5.23371C38.2351 5.08174 38.0894 4.89177 37.9755 4.6638C37.8678 4.4295 37.814 4.13505 37.814 3.78044C37.814 3.42583 37.871 3.10604 37.985 2.82109C38.1053 2.5298 38.2699 2.28284 38.4789 2.0802C38.6942 1.87124 38.9538 1.70976 39.2578 1.59578C39.568 1.4818 39.9132 1.4248 40.2931 1.4248C40.6477 1.4248 41.0182 1.47546 41.4044 1.57678C41.7907 1.67177 42.1611 1.81424 42.5158 2.00421L41.7749 3.45749Z" fill="#053038"/>
<path d="M141.514 5.11198C141.514 4.10399 141.884 3.23824 142.623 2.51472C143.359 1.7912 144.243 1.42944 145.276 1.42944C146.296 1.42944 147.171 1.7943 147.901 2.524C148.633 3.2537 149 4.13028 149 5.15372C149 6.18334 148.632 7.05682 147.896 7.77416C147.157 8.49459 146.265 8.8548 145.22 8.8548C144.295 8.8548 143.465 8.53478 142.729 7.89475C141.919 7.18669 141.514 6.2591 141.514 5.11198ZM142.604 5.12589C142.604 5.91743 142.87 6.56829 143.402 7.07847C143.931 7.58864 144.541 7.84373 145.234 7.84373C145.985 7.84373 146.619 7.584 147.135 7.06455C147.652 6.53892 147.91 5.89888 147.91 5.14444C147.91 4.38073 147.655 3.74069 147.145 3.22433C146.638 2.70488 146.01 2.44515 145.262 2.44515C144.516 2.44515 143.887 2.70488 143.374 3.22433C142.861 3.7376 142.604 4.37145 142.604 5.12589Z" fill="#053038"/>
<path d="M140.151 1.56396V8.72496H139.07V1.56396H140.151Z" fill="#053038"/>
<path d="M132.168 8.72496V1.56396H133.671C134.392 1.56396 134.961 1.63508 135.378 1.77731C135.826 1.91645 136.233 2.15298 136.598 2.48692C137.337 3.16097 137.706 4.04681 137.706 5.14446C137.706 6.2452 137.321 7.13569 136.551 7.81592C136.165 8.15604 135.76 8.39257 135.336 8.52553C134.94 8.65848 134.379 8.72496 133.653 8.72496H132.168ZM133.249 7.70925H133.736C134.222 7.70925 134.625 7.65823 134.947 7.5562C135.268 7.44798 135.559 7.27637 135.819 7.04138C136.35 6.55595 136.616 5.92364 136.616 5.14446C136.616 4.3591 136.353 3.72216 135.828 3.23363C135.355 2.79766 134.657 2.57968 133.736 2.57968H133.249V7.70925Z" fill="#053038"/>
<path d="M126.228 1.56396V5.87726C126.228 6.49256 126.328 6.94244 126.529 7.2269C126.829 7.63813 127.251 7.84375 127.795 7.84375C128.343 7.84375 128.766 7.63813 129.066 7.2269C129.267 6.95172 129.368 6.50184 129.368 5.87726V1.56396H130.448V6.17409C130.448 6.92853 130.213 7.55001 129.743 8.03854C129.214 8.58273 128.565 8.85482 127.795 8.85482C127.025 8.85482 126.378 8.58273 125.852 8.03854C125.382 7.55001 125.147 6.92853 125.147 6.17409V1.56396H126.228Z" fill="#053038"/>
<path d="M122.54 2.57968V8.72496H121.459V2.57968H119.813V1.56396H124.182V2.57968H122.54Z" fill="#053038"/>
<path d="M118.937 2.63067L118.06 3.15012C117.896 2.86566 117.74 2.68014 117.592 2.59357C117.437 2.49463 117.238 2.44515 116.994 2.44515C116.694 2.44515 116.445 2.53018 116.247 2.70024C116.049 2.86721 115.95 3.07746 115.95 3.331C115.95 3.68039 116.21 3.96176 116.729 4.17511L117.443 4.4673C118.025 4.70229 118.45 4.98984 118.719 5.32996C118.988 5.66698 119.122 6.08131 119.122 6.57293C119.122 7.23152 118.903 7.77571 118.464 8.20549C118.022 8.63836 117.473 8.8548 116.817 8.8548C116.196 8.8548 115.683 8.67083 115.277 8.30289C114.879 7.93494 114.63 7.41704 114.531 6.74917L115.625 6.508C115.675 6.92851 115.761 7.21915 115.885 7.37993C116.108 7.68913 116.432 7.84373 116.859 7.84373C117.196 7.84373 117.476 7.73087 117.698 7.50516C117.921 7.27944 118.032 6.99344 118.032 6.64714C118.032 6.508 118.012 6.38123 117.972 6.26683C117.935 6.14933 117.875 6.04266 117.791 5.94681C117.711 5.84786 117.606 5.75665 117.476 5.67317C117.346 5.58659 117.191 5.50466 117.012 5.42736L116.321 5.1398C115.341 4.72548 114.851 4.11945 114.851 3.32173C114.851 2.78372 115.056 2.33384 115.468 1.97208C115.879 1.60723 116.391 1.4248 117.003 1.4248C117.828 1.4248 118.473 1.82676 118.937 2.63067Z" fill="#053038"/>
<defs>
<clipPath id="clip0_609_12097">
<rect width="30.3953" height="10.9233" fill="white"/>
</clipPath>
</defs>
</svg>
