<svg width="28" height="22" viewBox="0 0 28 22" fill="none" xmlns="http://www.w3.org/2000/svg">
<path d="M25.25 4.5H19.625V3.5625C19.625 2.81658 19.3287 2.10121 18.8012 1.57376C18.2738 1.04632 17.5584 0.75 16.8125 0.75H11.1875C10.4416 0.75 9.72621 1.04632 9.19876 1.57376C8.67132 2.10121 8.375 2.81658 8.375 3.5625V4.5H2.75C2.25272 4.5 1.77581 4.69754 1.42417 5.04918C1.07254 5.40081 0.875 5.87772 0.875 6.375V9.65625C0.875 9.78057 0.924386 9.8998 1.01229 9.98771C1.1002 10.0756 1.21943 10.125 1.34375 10.125H6.5V8.28164C6.49614 8.0393 6.58435 7.80451 6.74681 7.62465C6.90927 7.44479 7.13391 7.33324 7.37539 7.3125C7.50363 7.30399 7.63225 7.32193 7.75326 7.36521C7.87427 7.4085 7.98509 7.47621 8.07883 7.56412C8.17257 7.65204 8.24724 7.7583 8.29819 7.87629C8.34914 7.99428 8.37528 8.12148 8.375 8.25V10.125H19.625V8.28164C19.6211 8.0393 19.7093 7.80451 19.8718 7.62465C20.0343 7.44479 20.2589 7.33324 20.5004 7.3125C20.6286 7.30399 20.7572 7.32193 20.8783 7.36521C20.9993 7.4085 21.1101 7.47621 21.2038 7.56412C21.2976 7.65204 21.3722 7.7583 21.4232 7.87629C21.4741 7.99428 21.5003 8.12148 21.5 8.25V10.125H26.6562C26.7806 10.125 26.8998 10.0756 26.9877 9.98771C27.0756 9.8998 27.125 9.78057 27.125 9.65625V6.375C27.125 5.87772 26.9275 5.40081 26.5758 5.04918C26.2242 4.69754 25.7473 4.5 25.25 4.5ZM17.75 4.5H10.25V3.5625C10.25 3.31386 10.3488 3.0754 10.5246 2.89959C10.7004 2.72377 10.9389 2.625 11.1875 2.625H16.8125C17.0611 2.625 17.2996 2.72377 17.4754 2.89959C17.6512 3.0754 17.75 3.31386 17.75 3.5625V4.5ZM27.125 12.4688V19.5C27.125 19.9973 26.9275 20.4742 26.5758 20.8258C26.2242 21.1775 25.7473 21.375 25.25 21.375H2.75C2.25272 21.375 1.77581 21.1775 1.42417 20.8258C1.07254 20.4742 0.875 19.9973 0.875 19.5V12.4688C0.875 12.3444 0.924386 12.2252 1.01229 12.1373C1.1002 12.0494 1.21943 12 1.34375 12H6.5V13.875C6.49972 14.0035 6.52586 14.1307 6.57681 14.2487C6.62776 14.3667 6.70243 14.473 6.79617 14.5609C6.88991 14.6488 7.00073 14.7165 7.12174 14.7598C7.24275 14.8031 7.37137 14.821 7.49961 14.8125C7.74109 14.7918 7.96573 14.6802 8.12819 14.5003C8.29065 14.3205 8.37886 14.0857 8.375 13.8434V12H19.625V13.875C19.6247 14.0035 19.6509 14.1307 19.7018 14.2487C19.7528 14.3667 19.8274 14.473 19.9212 14.5609C20.0149 14.6488 20.1257 14.7165 20.2467 14.7598C20.3678 14.8031 20.4964 14.821 20.6246 14.8125C20.8657 14.7918 21.09 14.6806 21.2524 14.5012C21.4148 14.3218 21.5033 14.0876 21.5 13.8457V12H26.6562C26.7806 12 26.8998 12.0494 26.9877 12.1373C27.0756 12.2252 27.125 12.3444 27.125 12.4688Z" fill="#294093"/>
</svg>
